<?xml version="1.0" encoding="UTF-8"?>
<svg xmlns="http://www.w3.org/2000/svg" xmlns:xlink="http://www.w3.org/1999/xlink" width="684" height="500" viewBox="0 0 684 500" version="1.1">
<g id="surface1">
<path style=" stroke:none;fill-rule:nonzero;fill:rgb(24.705882%,23.921569%,33.72549%);fill-opacity:1;" d="M 683.640625 142.523438 L 680.351562 142.523438 L 680.351562 52.25 C 680.351562 23.394531 656.96875 0 628.128906 0 L 436.972656 0 C 408.132812 0 384.753906 23.390625 384.753906 52.25 L 384.753906 547.507812 C 384.753906 576.363281 408.132812 599.757812 436.972656 599.757812 L 628.128906 599.757812 C 656.96875 599.757812 680.347656 576.363281 680.347656 547.507812 L 680.347656 206.785156 L 683.636719 206.785156 Z M 683.640625 142.523438 "/>
<path style=" stroke:none;fill-rule:nonzero;fill:rgb(100%,100%,100%);fill-opacity:1;" d="M 669.699219 48.75 L 669.699219 551.007812 C 669.695312 572.882812 651.972656 590.621094 630.109375 590.628906 L 435.03125 590.628906 C 413.15625 590.632812 395.417969 572.894531 395.414062 551.007812 L 395.414062 48.75 C 395.417969 26.863281 413.15625 9.125 435.027344 9.128906 L 458.691406 9.128906 C 456.332031 14.933594 457.011719 21.535156 460.507812 26.734375 C 464 31.9375 469.851562 35.0625 476.113281 35.070312 L 587.332031 35.070312 C 593.59375 35.0625 599.445312 31.9375 602.9375 26.734375 C 606.433594 21.535156 607.113281 14.933594 604.753906 9.128906 L 630.101562 9.128906 C 651.964844 9.132812 669.691406 26.863281 669.699219 48.742188 Z M 669.699219 48.75 "/>
<path style=" stroke:none;fill-rule:nonzero;fill:rgb(90.196078%,90.196078%,90.196078%);fill-opacity:1;" d="M 534.648438 249.683594 C 488.398438 249.699219 450.890625 212.203125 450.867188 165.925781 L 450.867188 165.851562 C 450.867188 165.675781 450.867188 165.492188 450.878906 165.316406 C 451.128906 119.40625 488.714844 82.023438 534.648438 82.023438 C 580.917969 82.019531 618.433594 119.550781 618.433594 165.847656 C 618.4375 212.144531 580.929688 249.679688 534.65625 249.679688 L 534.648438 249.679688 Z M 534.648438 83.789062 C 489.582031 83.886719 453 120.28125 452.640625 165.371094 C 452.632812 165.558594 452.632812 165.707031 452.632812 165.851562 C 452.628906 211.179688 489.347656 247.929688 534.648438 247.9375 C 579.953125 247.941406 616.683594 211.199219 616.6875 165.871094 C 616.695312 120.542969 579.972656 83.792969 534.671875 83.789062 Z M 534.648438 83.789062 "/>
<path style=" stroke:none;fill-rule:nonzero;fill:rgb(90.196078%,90.196078%,90.196078%);fill-opacity:1;" d="M 621.285156 337.820312 L 447.933594 337.820312 C 446.160156 337.816406 444.726562 336.378906 444.722656 334.609375 L 444.722656 291.582031 C 444.726562 289.808594 446.160156 288.375 447.933594 288.371094 L 621.285156 288.371094 C 623.054688 288.375 624.492188 289.808594 624.492188 291.582031 L 624.492188 334.609375 C 624.492188 336.382812 623.054688 337.816406 621.285156 337.820312 Z M 447.933594 289.65625 C 446.871094 289.65625 446.007812 290.519531 446.007812 291.582031 L 446.007812 334.609375 C 446.007812 335.671875 446.871094 336.535156 447.933594 336.535156 L 621.285156 336.535156 C 622.347656 336.535156 623.210938 335.671875 623.210938 334.609375 L 623.210938 291.582031 C 623.210938 290.519531 622.347656 289.65625 621.285156 289.65625 Z M 447.933594 289.65625 "/>
<path style=" stroke:none;fill-rule:nonzero;fill:rgb(90.196078%,90.196078%,90.196078%);fill-opacity:1;" d="M 501.542969 304.101562 C 500.300781 304.101562 499.296875 305.109375 499.296875 306.351562 C 499.296875 307.59375 500.300781 308.597656 501.542969 308.597656 L 607.480469 308.597656 C 608.71875 308.648438 609.761719 307.679688 609.8125 306.4375 C 609.859375 305.195312 608.890625 304.152344 607.652344 304.105469 C 607.617188 304.101562 607.585938 304.101562 607.550781 304.101562 Z M 501.542969 304.101562 "/>
<path style=" stroke:none;fill-rule:nonzero;fill:rgb(90.196078%,90.196078%,90.196078%);fill-opacity:1;" d="M 501.542969 317.59375 C 500.300781 317.59375 499.296875 318.597656 499.296875 319.839844 C 499.296875 321.082031 500.300781 322.089844 501.542969 322.089844 L 607.480469 322.089844 C 608.71875 322.136719 609.761719 321.167969 609.8125 319.929688 C 609.859375 318.6875 608.890625 317.640625 607.652344 317.59375 C 607.617188 317.59375 607.585938 317.59375 607.550781 317.59375 Z M 501.542969 317.59375 "/>
<path style=" stroke:none;fill-rule:nonzero;fill:rgb(90.196078%,90.196078%,90.196078%);fill-opacity:1;" d="M 621.285156 409.769531 L 447.933594 409.769531 C 446.160156 409.765625 444.726562 408.328125 444.722656 406.558594 L 444.722656 363.53125 C 444.726562 361.757812 446.160156 360.324219 447.933594 360.320312 L 621.285156 360.320312 C 623.054688 360.324219 624.492188 361.757812 624.492188 363.53125 L 624.492188 406.558594 C 624.492188 408.332031 623.054688 409.765625 621.285156 409.769531 Z M 447.933594 361.605469 C 446.871094 361.605469 446.007812 362.46875 446.007812 363.53125 L 446.007812 406.558594 C 446.007812 407.621094 446.871094 408.484375 447.933594 408.484375 L 621.285156 408.484375 C 622.347656 408.484375 623.210938 407.621094 623.210938 406.558594 L 623.210938 363.53125 C 623.210938 362.46875 622.347656 361.605469 621.285156 361.605469 Z M 447.933594 361.605469 "/>
<path style=" stroke:none;fill-rule:nonzero;fill:rgb(90.196078%,90.196078%,90.196078%);fill-opacity:1;" d="M 501.542969 376.046875 C 500.300781 376.046875 499.296875 377.054688 499.296875 378.296875 C 499.296875 379.539062 500.300781 380.546875 501.542969 380.546875 L 607.480469 380.546875 C 608.699219 380.539062 609.695312 379.554688 609.714844 378.332031 C 609.734375 377.109375 608.773438 376.097656 607.550781 376.050781 L 501.542969 376.050781 Z M 501.542969 376.046875 "/>
<path style=" stroke:none;fill-rule:nonzero;fill:rgb(90.196078%,90.196078%,90.196078%);fill-opacity:1;" d="M 501.542969 389.542969 C 500.300781 389.542969 499.296875 390.546875 499.296875 391.789062 C 499.296875 393.03125 500.300781 394.039062 501.542969 394.039062 L 607.480469 394.039062 C 608.699219 394.03125 609.695312 393.050781 609.714844 391.828125 C 609.734375 390.605469 608.773438 389.589844 607.550781 389.542969 Z M 501.542969 389.542969 "/>
<path style=" stroke:none;fill-rule:nonzero;fill:rgb(90.196078%,90.196078%,90.196078%);fill-opacity:1;" d="M 621.285156 481.714844 L 447.933594 481.714844 C 446.160156 481.714844 444.726562 480.277344 444.722656 478.503906 L 444.722656 435.480469 C 444.726562 433.707031 446.160156 432.269531 447.933594 432.269531 L 621.285156 432.269531 C 623.054688 432.269531 624.492188 433.707031 624.492188 435.480469 L 624.492188 478.503906 C 624.492188 480.277344 623.054688 481.714844 621.285156 481.71875 Z M 447.933594 433.550781 C 446.871094 433.554688 446.007812 434.417969 446.007812 435.480469 L 446.007812 478.503906 C 446.007812 479.570312 446.871094 480.433594 447.933594 480.433594 L 621.285156 480.433594 C 622.347656 480.433594 623.210938 479.570312 623.210938 478.503906 L 623.210938 435.480469 C 623.210938 434.417969 622.347656 433.554688 621.285156 433.550781 Z M 447.933594 433.550781 "/>
<path style=" stroke:none;fill-rule:nonzero;fill:rgb(90.196078%,90.196078%,90.196078%);fill-opacity:1;" d="M 501.542969 448 C 500.300781 448 499.296875 449.003906 499.296875 450.246094 C 499.296875 451.488281 500.300781 452.496094 501.542969 452.496094 L 607.480469 452.496094 C 608.71875 452.542969 609.761719 451.574219 609.8125 450.335938 C 609.859375 449.09375 608.890625 448.046875 607.652344 448 C 607.617188 448 607.585938 448 607.550781 448 Z M 501.542969 448 "/>
<path style=" stroke:none;fill-rule:nonzero;fill:rgb(90.196078%,90.196078%,90.196078%);fill-opacity:1;" d="M 501.542969 461.488281 C 500.300781 461.488281 499.296875 462.496094 499.296875 463.738281 C 499.296875 464.980469 500.300781 465.988281 501.542969 465.988281 L 607.480469 465.988281 C 608.71875 466.035156 609.761719 465.066406 609.8125 463.824219 C 609.859375 462.585938 608.890625 461.539062 607.652344 461.492188 C 607.617188 461.492188 607.585938 461.488281 607.550781 461.492188 L 501.542969 461.492188 Z M 501.542969 461.488281 "/>
<path style=" stroke:none;fill-rule:nonzero;fill:rgb(42.352941%,38.823529%,100%);fill-opacity:1;" d="M 561.121094 163.816406 L 536.6875 163.816406 L 536.6875 139.367188 L 532.617188 139.367188 L 532.617188 163.816406 L 508.183594 163.816406 L 508.183594 167.890625 L 532.617188 167.890625 L 532.617188 192.339844 L 536.6875 192.339844 L 536.6875 167.890625 L 561.121094 167.890625 Z M 561.121094 163.816406 "/>
<path style=" stroke:none;fill-rule:nonzero;fill:rgb(18.431373%,18.039216%,25.490196%);fill-opacity:1;" d="M 185.90625 471.253906 C 185.90625 471.253906 165.929688 493.148438 163.074219 543.597656 C 160.21875 594.046875 159.269531 599.757812 159.269531 599.757812 L 230.621094 599.757812 L 243.933594 565.492188 L 259.15625 599.753906 L 326.703125 599.753906 C 326.703125 599.753906 334.3125 495.046875 326.703125 492.191406 C 319.09375 489.335938 185.90625 471.253906 185.90625 471.253906 Z M 185.90625 471.253906 "/>
<path style=" stroke:none;fill-rule:nonzero;fill:rgb(100%,72.156863%,72.156863%);fill-opacity:1;" d="M 315.761719 179.5 C 315.761719 198.425781 300.429688 213.765625 281.515625 213.765625 C 262.601562 213.765625 247.265625 198.425781 247.265625 179.5 C 247.265625 160.574219 262.601562 145.230469 281.515625 145.230469 C 300.429688 145.230469 315.761719 160.574219 315.761719 179.5 Z M 315.761719 179.5 "/>
<path style=" stroke:none;fill-rule:nonzero;fill:rgb(100%,72.156863%,72.156863%);fill-opacity:1;" d="M 429.449219 472.207031 L 377.125 377.019531 L 346.679688 327.519531 L 382.832031 311.335938 L 402.8125 350.367188 C 402.8125 350.367188 429.449219 389.390625 436.109375 421.757812 C 442.765625 454.125 449.425781 469.351562 449.425781 469.351562 Z M 429.449219 472.207031 "/>
<path style=" stroke:none;fill-rule:nonzero;fill:rgb(100%,72.156863%,72.156863%);fill-opacity:1;" d="M 141.1875 444.601562 L 219.195312 376.0625 L 215.394531 320.855469 L 193.515625 320.855469 L 186.851562 349.410156 L 124.0625 432.226562 Z M 141.1875 444.601562 "/>
<path style=" stroke:none;fill-rule:nonzero;fill:rgb(89.411765%,89.411765%,89.411765%);fill-opacity:1;" d="M 242.03125 230.425781 C 242.03125 230.425781 270.289062 242.277344 291.359375 227.785156 C 291.359375 227.785156 342.875 236.140625 345.730469 238.992188 C 348.582031 241.847656 342.875 327.515625 342.875 327.515625 L 331.460938 376.066406 C 331.460938 376.066406 347.632812 450.3125 323.851562 469.351562 L 328.605469 495.050781 C 328.605469 495.050781 223.007812 502.667969 181.148438 476.964844 L 188.757812 451.261719 L 208.734375 370.351562 L 196.367188 258.03125 C 196.367188 258.03125 205.878906 232.332031 242.03125 230.425781 Z M 242.03125 230.425781 "/>
<path style=" stroke:none;fill-rule:nonzero;fill:rgb(89.411765%,89.411765%,89.411765%);fill-opacity:1;" d="M 321.472656 243.277344 L 346.207031 239.472656 C 346.207031 239.472656 358.574219 241.375 369.988281 265.171875 C 381.40625 288.96875 393.773438 320.382812 393.773438 320.382812 L 350.964844 339.421875 L 315.765625 284.210938 Z M 321.472656 243.277344 "/>
<path style=" stroke:none;fill-rule:nonzero;fill:rgb(89.411765%,89.411765%,89.411765%);fill-opacity:1;" d="M 202.078125 253.273438 L 196.371094 258.03125 C 196.371094 258.03125 188.757812 285.636719 188.757812 304.671875 L 188.757812 330.375 L 223.007812 334.183594 Z M 202.078125 253.273438 "/>
<path style=" stroke:none;fill-rule:nonzero;fill:rgb(18.431373%,18.039216%,25.490196%);fill-opacity:1;" d="M 247.277344 188.800781 C 247.277344 188.800781 242.621094 183.769531 243.089844 177.472656 C 243.402344 173.890625 243.171875 170.28125 242.414062 166.765625 C 242.414062 166.765625 243.871094 156.460938 246.023438 150.484375 C 248.171875 144.511719 246.359375 142.433594 255.609375 139.171875 C 264.855469 135.910156 258.96875 124.117188 286.234375 133.515625 C 288.355469 135.660156 291.554688 136.316406 294.347656 135.179688 C 299.382812 133.332031 302.414062 140.253906 302.414062 140.253906 C 302.414062 140.253906 305.554688 137.675781 307.316406 140.355469 C 309.078125 143.035156 317.601562 136.925781 320.726562 156.421875 C 323.855469 175.917969 313.125 193.304688 313.125 193.304688 C 313.125 193.304688 311.621094 162.109375 293.910156 161.542969 C 276.203125 160.976562 256.179688 154.265625 253.695312 167.402344 C 251.210938 180.539062 247.277344 188.800781 247.277344 188.800781 Z M 247.277344 188.800781 "/>
<path style=" stroke:none;fill-rule:nonzero;fill:rgb(100%,72.156863%,72.156863%);fill-opacity:1;" d="M 143.46875 444.410156 C 143.46875 452.566406 136.859375 459.179688 128.707031 459.179688 C 120.554688 459.179688 113.949219 452.566406 113.949219 444.410156 C 113.949219 436.253906 120.554688 429.644531 128.707031 429.644531 C 136.859375 429.644531 143.46875 436.253906 143.46875 444.410156 Z M 143.46875 444.410156 "/>
<path style=" stroke:none;fill-rule:nonzero;fill:rgb(100%,100%,100%);fill-opacity:1;" d="M 22.304688 544.15625 L 265.386719 495.605469 L 245.070312 393.78125 L 1.988281 442.328125 Z M 22.304688 544.15625 "/>
<path style=" stroke:none;fill-rule:nonzero;fill:rgb(89.411765%,89.411765%,89.411765%);fill-opacity:1;" d="M 267.375 496.933594 L 20.976562 546.148438 L 0 441.003906 L 246.398438 391.789062 Z M 23.632812 542.167969 L 263.398438 494.28125 L 243.746094 395.769531 L 3.980469 443.660156 Z M 23.632812 542.167969 "/>
<path style=" stroke:none;fill-rule:nonzero;fill:rgb(42.352941%,38.823529%,100%);fill-opacity:1;" d="M 101.5625 511.789062 L 101.460938 511.832031 C 100.667969 512.160156 99.867188 512.46875 99.039062 512.738281 C 98.761719 512.832031 98.476562 512.921875 98.195312 513.003906 C 97.917969 513.089844 97.628906 513.179688 97.339844 513.257812 C 96.871094 513.390625 96.390625 513.511719 95.90625 513.621094 C 95.699219 513.675781 95.484375 513.722656 95.273438 513.765625 L 95.148438 513.792969 C 94.890625 513.847656 94.632812 513.902344 94.371094 513.949219 L 93.695312 514.066406 C 93.570312 514.09375 93.445312 514.113281 93.324219 514.128906 C 78.644531 516.433594 64.0625 509.449219 56.652344 496.5625 C 49.238281 483.675781 50.53125 467.550781 59.898438 456.007812 C 69.265625 444.46875 84.773438 439.894531 98.902344 444.507812 C 89.398438 453.097656 85.191406 466.097656 87.855469 478.628906 C 90.515625 491.160156 99.652344 501.320312 111.820312 505.296875 C 108.796875 508.03125 105.328125 510.230469 101.5625 511.792969 Z M 101.5625 511.789062 "/>
<path style=" stroke:none;fill-rule:nonzero;fill:rgb(42.352941%,38.823529%,100%);fill-opacity:1;" d="M 152.875 493.527344 C 154.445312 494.3125 156.070312 494.980469 157.738281 495.523438 C 153.066406 499.757812 147.359375 502.679688 141.191406 503.992188 L 140.742188 504.089844 C 125.988281 507.050781 110.953125 500.496094 103.085938 487.664062 C 95.214844 474.832031 96.175781 458.449219 105.496094 446.632812 C 114.816406 434.8125 130.515625 430.0625 144.816406 434.738281 C 135.984375 442.683594 131.65625 454.492188 133.269531 466.269531 C 134.886719 478.042969 142.230469 488.253906 152.875 493.527344 Z M 152.875 493.527344 "/>
<path style=" stroke:none;fill-rule:nonzero;fill:rgb(42.352941%,38.823529%,100%);fill-opacity:1;" d="M 214.742188 451.628906 C 218.863281 471.03125 206.488281 490.101562 187.097656 494.226562 C 167.710938 498.355469 148.648438 485.972656 144.523438 466.570312 C 140.402344 447.171875 152.777344 428.097656 172.164062 423.972656 C 191.554688 419.84375 210.617188 432.226562 214.742188 451.628906 Z M 214.742188 451.628906 "/>
<path style=" stroke:none;fill-rule:nonzero;fill:rgb(100%,100%,100%);fill-opacity:1;" d="M 199.710938 483.675781 C 200.050781 485.265625 200.226562 486.886719 200.238281 488.511719 C 192.253906 494.105469 182.339844 496.214844 172.773438 494.355469 C 172.121094 492.867188 171.625 491.3125 171.289062 489.722656 C 169.53125 481.460938 172.253906 473.582031 177.550781 470.015625 C 172.355469 469.023438 168.578125 464.507812 168.523438 459.214844 C 168.46875 453.921875 172.148438 449.328125 177.320312 448.226562 C 182.492188 447.125 187.726562 449.824219 189.828125 454.679688 C 191.929688 459.539062 190.316406 465.203125 185.976562 468.222656 C 192.265625 469.324219 197.953125 475.414062 199.710938 483.675781 Z M 199.710938 483.675781 "/>
<path style=" stroke:none;fill-rule:nonzero;fill:rgb(100%,100%,100%);fill-opacity:1;" d="M 152.875 493.527344 L 152.898438 493.636719 C 153.203125 495.632812 153.339844 497.652344 153.308594 499.667969 C 149.589844 502.28125 145.433594 503.03125 140.742188 504.09375 L 140.289062 504.1875 C 135.570312 505.199219 130.699219 505.242188 125.960938 504.316406 C 125.898438 504.179688 125.84375 504.042969 125.796875 503.898438 C 125.222656 502.539062 124.78125 501.128906 124.480469 499.683594 C 122.722656 491.421875 125.445312 483.542969 130.742188 479.976562 C 125.546875 478.988281 121.769531 474.46875 121.714844 469.175781 C 121.65625 463.886719 125.339844 459.289062 130.511719 458.1875 C 131.363281 458.003906 132.230469 457.925781 133.101562 457.953125 C 131.679688 472.769531 139.546875 486.921875 152.878906 493.53125 Z M 152.875 493.527344 "/>
<path style=" stroke:none;fill-rule:nonzero;fill:rgb(100%,100%,100%);fill-opacity:1;" d="M 107.847656 503.730469 C 108.132812 505.164062 108.28125 506.617188 108.289062 508.078125 C 105.449219 510.070312 102.335938 511.640625 99.042969 512.738281 C 98.765625 512.832031 98.476562 512.917969 98.199219 513.003906 C 97.917969 513.085938 97.632812 513.175781 97.34375 513.253906 C 96.875 513.390625 96.390625 513.511719 95.910156 513.621094 C 95.808594 513.652344 95.703125 513.675781 95.601562 513.695312 L 95.152344 513.792969 C 94.890625 513.847656 94.632812 513.902344 94.371094 513.949219 L 93.699219 514.066406 C 93.570312 514.09375 93.449219 514.109375 93.324219 514.128906 C 89.179688 514.796875 84.945312 514.726562 80.824219 513.921875 C 80.8125 513.902344 80.804688 513.882812 80.800781 513.863281 C 80.746094 513.746094 80.695312 513.625 80.65625 513.503906 C 80.082031 512.144531 79.644531 510.730469 79.339844 509.289062 C 77.585938 501.027344 80.308594 493.144531 85.601562 489.582031 C 80.40625 488.589844 76.628906 484.074219 76.574219 478.78125 C 76.519531 473.488281 80.199219 468.890625 85.375 467.792969 C 85.976562 467.664062 86.585938 467.585938 87.203125 467.558594 C 85.667969 482.789062 93.960938 497.3125 107.847656 503.730469 Z M 107.847656 503.730469 "/>
<path style=" stroke:none;fill-rule:nonzero;fill:rgb(42.352941%,38.823529%,100%);fill-opacity:1;" d="M 477.667969 319.550781 C 477.667969 320.363281 477.589844 321.171875 477.425781 321.96875 C 472.9375 323.875 467.871094 323.875 463.382812 321.96875 C 463.21875 321.171875 463.136719 320.363281 463.140625 319.550781 C 463.140625 315.324219 465.289062 311.753906 468.25 310.5625 C 465.8125 309.535156 464.433594 306.933594 464.957031 304.339844 C 465.480469 301.742188 467.757812 299.878906 470.402344 299.878906 C 473.046875 299.878906 475.328125 301.742188 475.847656 304.339844 C 476.371094 306.933594 474.996094 309.535156 472.558594 310.5625 C 475.519531 311.753906 477.667969 315.324219 477.667969 319.550781 Z M 477.667969 319.550781 "/>
<path style=" stroke:none;fill-rule:nonzero;fill:rgb(42.352941%,38.823529%,100%);fill-opacity:1;" d="M 477.667969 392.957031 C 477.667969 393.769531 477.589844 394.578125 477.425781 395.375 C 472.9375 397.28125 467.871094 397.28125 463.382812 395.375 C 463.21875 394.578125 463.136719 393.769531 463.140625 392.957031 C 463.140625 388.730469 465.289062 385.160156 468.25 383.96875 C 465.8125 382.941406 464.433594 380.339844 464.957031 377.746094 C 465.480469 375.152344 467.757812 373.285156 470.402344 373.285156 C 473.046875 373.285156 475.328125 375.152344 475.847656 377.746094 C 476.371094 380.339844 474.996094 382.941406 472.558594 383.96875 C 475.519531 385.160156 477.667969 388.730469 477.667969 392.957031 Z M 477.667969 392.957031 "/>
<path style=" stroke:none;fill-rule:nonzero;fill:rgb(42.352941%,38.823529%,100%);fill-opacity:1;" d="M 477.667969 464.902344 C 477.667969 465.714844 477.589844 466.527344 477.425781 467.324219 C 472.9375 469.226562 467.871094 469.226562 463.382812 467.324219 C 463.21875 466.527344 463.136719 465.714844 463.140625 464.902344 C 463.140625 460.679688 465.289062 457.109375 468.25 455.914062 C 465.8125 454.890625 464.433594 452.285156 464.957031 449.691406 C 465.480469 447.097656 467.757812 445.230469 470.402344 445.230469 C 473.046875 445.230469 475.328125 447.097656 475.847656 449.691406 C 476.371094 452.285156 474.996094 454.890625 472.558594 455.914062 C 475.519531 457.109375 477.667969 460.679688 477.667969 464.902344 Z M 477.667969 464.902344 "/>
<path style=" stroke:none;fill-rule:nonzero;fill:rgb(100%,72.156863%,72.156863%);fill-opacity:1;" d="M 453.839844 476.058594 C 453.839844 483.515625 447.796875 489.558594 440.34375 489.558594 C 432.890625 489.558594 426.851562 483.515625 426.851562 476.058594 C 426.851562 468.601562 432.890625 462.554688 440.34375 462.554688 C 447.796875 462.554688 453.839844 468.601562 453.839844 476.058594 Z M 453.839844 476.058594 "/>
</g>
</svg>
